# xmcd CD database file
#
# Track frame offsets:
#	150
#	14150
#	27925
#	50641
#	69237
#	82792
#	100422
#	128491
#	147597
#	160927
#	175325
#	191993
#	207472
#	226613
#
# Disc length: 3232 seconds
#
# Revision: 0
# Processed by: cddbd v1.4PL0 Copyright (c) Steve Scherf et al.
# Submitted via: Feurio! 1.65 - http://www.feurio.com
#
DISCID=c10c9e0e
DTITLE=The Notations - The Notations Greatest Hits
DYEAR=1900
DGENRE=Blues
TTITLE0=Make Believin'
TTITLE1=I'm Losing
TTITLE2=Ebony Eyes
TTITLE3=I'm Still Here
TTITLE4=It's All Right
TTITLE5=It Only Hurts For A Little While
TTITLE6=Baby I Like Your Style
TTITLE7=Just My Imagination
TTITLE8=Just You And Me
TTITLE9=Leading Lady
TTITLE10=Make Me Twice The Man
TTITLE11=Since You've Been Gone
TTITLE12=Take It Slow
TTITLE13=There I Go
EXTD=
EXTT0=
EXTT1=
EXTT2=
EXTT3=
EXTT4=
EXTT5=
EXTT6=
EXTT7=
EXTT8=
EXTT9=
EXTT10=
EXTT11=
EXTT12=
EXTT13=
PLAYORDER=
